<?xml version="1.0" standalone="no"?>
<!DOCTYPE svg PUBLIC "-//W3C//DTD SVG 20010904//EN"
 "http://www.w3.org/TR/2001/REC-SVG-20010904/DTD/svg10.dtd">
<svg version="1.0" xmlns="http://www.w3.org/2000/svg"
 width="540.000000pt" height="720.000000pt" viewBox="0 0 540.000000 720.000000"
 preserveAspectRatio="xMidYMid meet">

<g transform="translate(0.000000,720.000000) scale(0.100000,-0.100000)"
fill="#000000" stroke="none">
<path d="M0 7180 c0 -24 15 -27 24 -4 9 22 8 24 -9 24 -8 0 -15 -9 -15 -20z"/>
<path d="M1160 7190 c0 -30 153 -43 164 -14 3 9 6 18 6 20 0 2 -38 4 -85 4
-51 0 -85 -4 -85 -10z"/>
<path d="M1470 7186 c0 -31 52 -31 64 -1 4 11 -3 15 -29 15 -24 0 -35 -5 -35
-14z"/>
<path d="M2154 7165 c0 -19 -4 -38 -8 -42 -9 -9 -73 -10 -114 -1 -26 6 -36 4
-50 -14 -39 -49 -50 -56 -76 -51 -14 3 -27 1 -27 -3 -10 -79 -5 -93 28 -75 10
5 40 11 67 13 45 3 49 5 60 38 l11 35 78 -3 c84 -3 95 5 57 46 l-20 22 20 20
c27 27 26 50 -3 50 -18 0 -22 -6 -23 -35z m-214 -129 c0 -2 -7 -9 -15 -16 -13
-11 -14 -10 -9 4 5 14 24 23 24 12z"/>
<path d="M2565 7171 l6 -29 -68 14 c-62 13 -69 13 -80 -2 -7 -9 -14 -21 -15
-25 -2 -5 -21 -2 -42 5 -46 16 -76 10 -76 -14 0 -10 -11 -27 -25 -38 -14 -11
-25 -25 -25 -31 0 -6 -4 -12 -10 -12 -5 -1 -13 -2 -17 -3 -13 -3 -97 -59 -116
-78 -12 -12 -33 -18 -64 -18 -29 0 -53 -6 -64 -16 -18 -16 -47 -25 -154 -44
-27 -5 -72 -19 -100 -30 -51 -20 -117 -38 -170 -46 -48 -8 -105 -27 -105 -35
0 -5 -6 -6 -13 -3 -24 9 -52 -23 -52 -58 0 -28 -4 -33 -25 -34 -61 -4 -92 -17
-113 -50 -12 -19 -30 -36 -39 -40 -19 -6 -24 -40 -8 -64 7 -12 14 -12 27 -4
97 59 162 80 177 55 11 -17 66 -20 110 -5 41 14 47 14 72 -2 26 -18 27 -18 20
3 -6 19 -2 23 31 32 49 14 133 14 133 0 0 -5 -13 -15 -29 -20 -16 -6 -32 -17
-35 -25 -4 -9 -21 -14 -51 -14 -25 0 -45 -4 -45 -10 0 -5 -12 -13 -27 -16 -16
-4 -40 -18 -55 -32 -16 -14 -33 -22 -42 -19 -11 4 -16 1 -16 -12 0 -10 -3 -21
-7 -25 -5 -4 -9 -12 -9 -17 -1 -5 -2 -13 -3 -19 -2 -22 -159 2 -174 27 -13 21
-37 3 -37 -28 0 -24 -5 -29 -35 -35 -38 -7 -70 -49 -59 -78 4 -10 -3 -20 -20
-27 -14 -7 -26 -15 -26 -19 0 -11 29 -45 30 -34 0 6 26 14 57 18 31 4 62 11
70 17 9 8 21 7 43 -2 36 -16 37 -23 8 -43 -20 -14 -20 -18 -8 -41 12 -23 12
-28 0 -35 -13 -8 -13 -13 -2 -31 18 -28 3 -39 -53 -39 -22 0 -58 -7 -80 -15
-36 -12 -41 -12 -52 3 -19 24 -16 29 25 43 20 6 39 15 42 18 9 12 77 41 95 41
35 0 7 25 -32 28 -36 3 -41 0 -52 -27 -9 -21 -19 -29 -34 -28 -12 0 -41 0 -64
-1 -41 -2 -43 -4 -43 -32 0 -27 -3 -30 -29 -30 -16 0 -37 -8 -46 -17 -26 -25
-55 -99 -72 -181 -15 -72 -14 -74 6 -88 27 -20 27 -28 -6 -71 l-28 -36 -3
-261 c-2 -170 -7 -263 -14 -267 -16 -10 -16 -179 0 -179 15 0 16 -32 1 -47
-11 -11 -40 -183 -32 -195 2 -4 -1 -17 -7 -28 -28 -53 -51 40 -55 225 -2 88
-12 145 -26 145 -5 0 -16 -12 -25 -26 -13 -19 -24 -24 -41 -21 -13 2 -23 0
-23 -4 0 -5 -18 -9 -40 -9 -23 0 -40 -5 -40 -11 0 -6 9 -9 20 -6 17 4 18 2 10
-13 -6 -11 -15 -22 -20 -25 -6 -3 -10 -17 -10 -30 0 -22 -3 -23 -36 -18 -27 5
-39 2 -45 -10 -5 -8 -24 -18 -42 -22 -69 -13 -117 -28 -117 -37 0 -18 -87 -47
-165 -53 -75 -6 -82 -5 -117 19 l-38 25 0 -289 0 -290 68 0 c37 0 98 5 136 10
39 6 73 7 80 2 6 -5 35 -17 63 -27 29 -11 53 -23 53 -28 0 -14 23 -31 70 -52
55 -24 89 -47 90 -60 0 -13 154 -7 158 6 4 10 102 13 102 3 0 -4 -8 -13 -17
-20 -16 -12 -12 -13 29 -14 27 0 49 -5 52 -12 3 -7 3 -3 0 10 -4 15 -1 22 9
22 8 0 21 10 29 22 19 28 38 16 38 -26 0 -39 66 -114 125 -142 38 -18 64 -60
66 -106 0 -22 1 -22 9 -3 5 11 9 106 9 210 1 161 -3 211 -24 325 -28 154 -33
315 -11 358 12 23 18 68 43 277 7 66 7 66 53 50 23 -8 69 -17 104 -21 50 -5
65 -3 78 10 21 20 164 76 196 76 15 0 26 7 29 19 3 12 17 21 36 25 18 3 46 19
62 34 44 41 92 60 165 65 114 9 180 20 180 28 0 4 -8 13 -17 18 -15 9 -13 10
13 11 26 0 30 -4 29 -22 -1 -13 2 -29 8 -35 11 -15 47 -18 47 -5 0 5 18 17 40
27 27 12 37 21 28 26 -8 5 -4 11 15 18 39 15 45 14 57 -9 16 -30 88 -64 113
-53 23 11 140 -12 145 -28 5 -12 82 -12 82 1 0 6 7 10 15 10 8 0 44 10 80 21
62 21 65 23 65 54 0 45 20 60 63 46 28 -10 42 -9 75 4 36 15 42 22 53 66 12
45 16 51 35 48 4 0 10 5 14 11 6 10 19 10 56 1 41 -10 114 -13 114 -4 0 15
-27 54 -42 58 -25 9 -23 42 5 51 12 4 24 9 27 13 20 25 76 47 133 53 39 5 47
3 47 -11 0 -25 25 -57 34 -43 4 7 25 12 46 12 21 0 42 5 46 11 4 8 28 10 67 6
58 -5 61 -4 95 29 19 19 40 34 46 35 72 7 186 -56 239 -132 22 -33 26 -47 21
-75 -4 -20 -2 -34 4 -34 11 0 23 -32 27 -77 4 -34 74 -189 152 -336 17 -33 46
-149 63 -257 6 -41 15 -88 20 -105 5 -16 16 -63 25 -104 9 -40 29 -109 45
-153 16 -43 38 -138 50 -211 11 -73 25 -151 30 -175 6 -23 10 -54 10 -68 0
-14 4 -33 10 -43 21 -40 29 -386 9 -422 -21 -39 -39 -309 -24 -356 5 -15 3
-23 -4 -23 -6 0 -11 8 -11 18 0 10 -7 28 -16 40 -15 22 -17 23 -29 5 -7 -10
-16 -36 -21 -58 -6 -24 -16 -40 -24 -40 -8 0 -21 -4 -27 -8 -7 -5 -13 -4 -13
1 0 13 -47 24 -71 17 -10 -4 -19 -14 -19 -24 0 -10 -6 -24 -14 -30 -8 -7 -21
-32 -30 -57 -8 -24 -22 -51 -30 -59 -16 -17 -86 -21 -86 -5 0 6 -6 10 -13 10
-7 0 -19 9 -27 20 -8 11 -20 20 -27 20 -7 0 -15 12 -19 28 -26 111 -46 178
-60 193 -9 10 -17 36 -17 58 -2 43 -21 56 -30 20 -10 -38 -27 -9 -27 46 0 51
-1 54 -31 64 -18 6 -45 11 -60 11 -15 0 -30 4 -33 9 -4 5 -25 12 -48 16 -46 8
-87 33 -88 52 0 21 -36 33 -97 33 -62 0 -76 -5 -86 -32 -4 -12 -1 -18 8 -18
11 0 15 -11 14 -42 0 -24 -3 -36 -6 -28 -8 20 -24 30 -50 30 -13 0 -23 3 -23
8 -1 4 -10 18 -21 31 l-20 24 -25 -24 c-22 -20 -35 -24 -85 -22 -43 1 -66 7
-85 22 -23 18 -35 20 -83 15 -31 -4 -60 -10 -66 -14 -25 -19 -132 -49 -153
-43 -23 5 -102 -23 -102 -37 0 -4 -28 -8 -62 -9 -35 -1 -73 -8 -85 -16 -12 -8
-29 -12 -38 -9 -23 9 -136 -36 -172 -69 -33 -29 -29 -51 17 -99 28 -28 37 -44
29 -49 -7 -4 -10 -13 -7 -21 4 -10 -3 -15 -24 -16 -43 -3 -46 -7 -54 -59 -9
-62 -40 -93 -92 -93 -22 0 -44 6 -50 13 -15 18 -24 137 -11 137 8 0 7 5 -1 15
-7 8 -16 12 -21 9 -5 -3 -9 2 -9 10 0 9 3 16 8 16 4 0 8 14 8 31 1 17 7 35 15
40 10 6 10 9 2 9 -7 0 -13 6 -13 14 0 16 -71 30 -80 16 -3 -5 -41 -15 -83 -21
-49 -7 -77 -16 -77 -24 0 -7 -7 -18 -15 -25 -10 -9 -14 -23 -10 -44 5 -25 0
-37 -25 -63 -30 -31 -80 -46 -80 -23 0 6 -7 10 -15 10 -10 0 -15 -10 -15 -34
0 -35 -12 -46 -53 -46 -32 -1 -70 -33 -65 -56 3 -16 13 -19 66 -22 78 -4 87
-16 72 -104 -5 -35 -10 -100 -10 -145 0 -94 -5 -113 -30 -113 -31 0 -98 42
-104 64 -3 13 -28 33 -63 52 -54 29 -58 33 -57 65 1 30 -2 34 -28 36 -15 1
-28 -2 -28 -7 0 -6 -7 -10 -15 -10 -9 0 -15 9 -15 22 0 12 -7 30 -17 40 -9 10
-19 37 -23 61 -17 97 -52 252 -60 267 -7 10 -10 -4 -11 -45 -1 -33 0 -64 1
-70 19 -71 39 -179 39 -212 1 -40 -1 -43 -26 -43 -36 1 -72 33 -107 93 -28 49
-33 82 -20 150 3 22 2 49 -3 60 -11 25 -23 60 -60 172 -27 86 -57 149 -81 178
-9 10 -24 46 -33 80 -9 34 -27 94 -39 132 -12 39 -25 95 -30 125 -10 71 -18
90 -36 83 -8 -3 -12 -9 -9 -13 13 -21 -71 -120 -101 -120 -8 0 -14 -7 -14 -15
0 -11 -11 -15 -40 -15 -22 0 -40 -4 -40 -10 0 -5 -18 -10 -40 -10 -22 0 -40
-4 -40 -10 0 -5 -18 -10 -40 -10 -22 0 -40 4 -40 9 0 17 -299 36 -315 20 -3
-4 -7 -17 -8 -30 0 -13 -6 -28 -12 -32 -7 -6 -6 -10 3 -14 7 -3 12 -23 12 -52
0 -26 5 -52 12 -59 7 -7 8 -12 2 -12 -5 0 -15 9 -22 20 -13 22 -32 19 -32 -6
0 -8 7 -14 15 -14 10 0 15 -10 15 -32 0 -66 9 -78 52 -78 27 0 50 -8 72 -25
18 -14 38 -25 44 -25 35 0 47 -95 16 -121 -8 -6 -14 -18 -14 -25 0 -8 -10 -14
-25 -14 -14 0 -25 -4 -25 -10 0 -5 -6 -10 -13 -10 -18 0 -47 -32 -47 -52 0 -9
7 -21 16 -28 13 -12 12 -16 -13 -36 -15 -13 -36 -23 -45 -24 -19 0 -81 -31
-86 -42 -2 -5 -14 -8 -27 -8 -55 0 -55 -1 -55 -155 l0 -142 48 -14 c29 -8 59
-26 79 -47 18 -19 33 -37 33 -40 0 -11 37 -31 58 -32 16 0 22 -6 22 -24 0 -21
5 -24 56 -29 31 -3 62 -11 67 -16 6 -6 26 -11 44 -11 19 0 39 -5 46 -10 7 -6
24 -19 38 -30 32 -24 84 -128 94 -190 4 -25 10 -88 15 -141 6 -77 14 -108 40
-162 32 -66 34 -89 20 -184 0 -2 -12 -3 -27 -3 -14 0 -34 -6 -42 -13 -27 -22
-111 -36 -231 -38 -64 -1 -132 -8 -154 -16 -21 -7 -76 -13 -122 -13 l-84 0 0
-721 0 -721 23 -28 c12 -15 36 -51 52 -79 l30 -51 571 0 572 0 65 58 c78 68
97 112 97 217 0 40 5 97 12 126 6 30 10 78 9 106 -1 40 2 53 12 53 8 0 19 18
26 40 11 36 15 40 45 40 29 0 35 -5 45 -32 7 -18 19 -46 27 -61 8 -16 14 -37
14 -48 0 -10 4 -19 9 -19 6 0 7 -15 4 -34 -4 -29 20 -104 43 -135 9 -12 122
58 195 122 48 41 101 83 118 93 45 26 55 61 47 162 -7 97 -38 282 -55 325 -6
16 -11 40 -11 53 0 35 -36 189 -72 309 -16 55 -36 132 -44 170 -7 39 -21 82
-29 98 -9 15 -14 31 -11 36 4 5 2 21 -4 35 -17 46 16 42 40 -4 28 -52 112
-159 129 -165 10 -3 33 -19 50 -35 17 -17 35 -30 41 -30 5 0 10 -6 10 -13 0
-16 37 -51 63 -60 11 -4 17 -17 17 -36 0 -20 9 -37 30 -54 19 -17 29 -34 27
-48 -1 -15 7 -27 28 -39 17 -9 30 -25 30 -36 -1 -10 4 -22 9 -26 6 -4 12 -38
14 -77 3 -53 0 -75 -12 -92 -19 -28 -20 -39 -3 -39 9 0 12 -42 14 -172 3 -291
8 -442 16 -455 4 -6 2 -13 -4 -15 -12 -4 -14 -197 -3 -276 l6 -42 852 0 851 0
25 38 c42 63 52 74 111 128 37 33 67 69 85 100 6 10 17 19 25 19 8 0 24 20 37
45 18 34 24 65 28 137 2 57 0 93 -6 93 -6 0 -10 18 -10 40 0 22 5 40 10 40 6
0 10 18 10 40 0 22 -4 40 -9 40 -5 0 -12 10 -15 23 l-6 22 -19 -23 c-11 -12
-23 -22 -29 -22 -5 0 -12 59 -16 131 -6 111 -4 134 9 149 8 9 15 22 15 28 0 6
7 12 15 14 13 3 13 6 0 32 -16 31 -21 151 -6 160 18 12 22 58 6 70 -12 9 -16
33 -16 124 0 138 10 252 23 252 6 0 7 32 3 84 -6 65 -4 91 8 117 27 60 31 83
14 76 -11 -4 -21 3 -31 23 -8 17 -10 30 -5 30 5 0 9 8 9 18 0 9 9 28 20 42 11
14 20 31 20 39 0 8 12 39 26 69 14 30 35 75 45 100 26 59 36 47 54 -59 15 -95
48 -219 69 -264 8 -16 20 -49 27 -72 7 -25 18 -43 27 -43 10 0 12 6 7 23 -14
42 -17 87 -7 87 5 0 12 -7 16 -15 7 -20 32 -19 41 3 5 14 9 10 22 -18 12 -27
14 -61 10 -150 -3 -81 -1 -122 8 -140 7 -14 15 -45 19 -70 4 -28 16 -56 31
-72 14 -15 25 -31 25 -37 0 -5 3 -11 8 -13 4 -1 19 -20 33 -40 133 -194 502
-478 620 -478 18 0 19 12 19 260 0 250 -1 260 -19 260 -11 0 -21 -5 -23 -11
-5 -16 -184 -17 -199 -1 -7 6 -21 12 -30 12 -10 0 -25 7 -33 15 -9 9 -28 17
-43 19 -32 5 -83 26 -100 42 -16 16 -34 89 -29 119 8 41 17 65 26 65 4 0 17
20 29 45 22 48 47 58 75 30 8 -8 24 -15 34 -15 11 0 39 -18 61 -40 25 -25 50
-40 65 -40 13 0 26 -4 28 -9 3 -9 134 -71 149 -71 5 0 9 216 9 479 l0 479 -52
26 c-29 14 -59 26 -69 26 -9 0 -22 7 -29 15 -7 8 -17 15 -22 15 -5 0 -24 11
-42 25 -18 14 -40 25 -49 25 -10 0 -17 7 -17 15 0 8 -9 15 -20 15 -20 0 -30 7
-93 65 -25 23 -42 30 -77 32 -24 1 -46 6 -48 12 -2 6 -14 11 -26 11 -12 0 -39
9 -61 20 -22 11 -47 20 -57 20 -10 0 -18 6 -18 13 0 8 -10 19 -22 25 -65 34
-91 54 -118 91 -17 22 -30 45 -30 50 0 5 -8 23 -17 41 -18 30 -18 31 5 50 23
19 31 53 10 45 -28 -10 -40 14 -51 99 -6 55 -7 98 -1 119 12 40 1 194 -15 210
-6 6 -11 36 -11 67 0 58 12 79 51 93 10 3 19 21 22 44 3 21 10 56 17 78 23 79
23 89 -2 100 -12 6 -28 20 -34 32 -30 62 -80 123 -101 123 -17 0 -23 8 -28 38
-12 75 -9 160 9 186 9 14 16 35 16 46 0 12 10 25 24 31 14 7 22 17 20 24 -3 7
2 15 10 18 10 4 16 1 16 -8 0 -8 4 -15 8 -15 4 0 8 31 8 70 0 59 3 73 22 90
13 12 22 33 22 49 0 49 12 91 26 91 17 0 34 -61 22 -76 -12 -16 0 -42 24 -49
10 -4 24 -17 30 -30 6 -13 19 -26 29 -28 11 -3 19 -14 19 -25 0 -12 5 -24 10
-27 6 -3 10 -2 10 4 0 5 17 11 38 13 34 3 37 6 40 36 3 30 6 32 45 34 l42 1
-37 4 c-37 4 -38 5 -38 44 0 21 5 39 10 39 6 0 10 18 10 40 0 29 -4 40 -15 40
-11 0 -15 12 -15 49 0 42 -5 54 -31 80 -16 17 -38 30 -47 29 -9 -1 -44 0 -77
0 -73 2 -86 17 -91 106 -1 34 -6 82 -9 108 -9 65 -1 86 30 80 14 -2 25 0 25 6
0 6 18 13 39 17 22 4 45 13 52 21 21 26 29 15 29 -41 l0 -55 63 0 64 0 7 128
7 127 -31 27 c-16 15 -30 37 -30 48 0 11 -4 20 -9 20 -20 0 -23 41 -4 56 17
13 17 15 -7 34 -14 11 -40 20 -58 20 -29 0 -69 15 -82 31 -9 11 -48 29 -63 29
-8 0 -17 -9 -20 -20 -7 -28 -51 -26 -70 3 -8 12 -18 38 -22 57 -4 19 -15 46
-25 60 -18 26 -28 60 -37 125 -3 22 -12 49 -19 61 -22 33 -46 124 -40 150 8
31 -9 73 -44 109 -18 18 -35 52 -44 88 -10 38 -24 65 -43 82 -37 33 -57 33
-49 0 11 -43 -1 -70 -32 -69 -45 1 -72 21 -72 54 0 17 4 30 8 30 5 0 20 9 32
20 22 19 23 23 11 53 -23 56 -38 119 -33 143 2 13 22 43 43 65 22 23 39 48 39
55 0 8 9 14 20 14 11 0 20 4 20 8 0 5 27 16 61 26 59 18 62 18 115 0 30 -10
54 -22 54 -26 0 -4 11 -8 25 -8 16 0 25 -6 25 -15 0 -8 18 -22 40 -31 22 -9
40 -20 40 -25 0 -5 18 -9 40 -9 22 0 40 -4 40 -10 0 -5 16 -10 35 -10 20 0 52
-7 72 -15 19 -8 46 -15 58 -15 13 0 33 -9 46 -19 22 -17 27 -18 58 -5 18 8 41
14 51 14 9 0 30 12 46 27 25 23 26 28 12 31 -12 2 -18 13 -18 28 0 26 -20 54
-38 54 -19 0 -82 72 -82 94 0 11 -11 33 -25 48 -24 26 -25 33 -25 143 l0 115
-560 0 -559 0 -25 -25 c-14 -14 -32 -25 -41 -25 -8 0 -15 -7 -15 -16 0 -23 19
-54 33 -54 16 0 40 -38 32 -50 -4 -7 -13 -6 -25 0 -10 5 -30 10 -43 10 -13 0
-38 7 -55 16 -31 15 -72 12 -72 -6 0 -5 19 -10 42 -12 46 -3 60 -21 29 -38
-17 -8 -31 -5 -71 15 -38 19 -73 27 -133 31 -45 3 -85 8 -89 10 -4 3 -16 -1
-27 -8 -18 -11 -24 -9 -48 14 -15 14 -44 33 -63 42 -19 9 -47 24 -62 34 -24
15 -31 15 -60 3 -44 -18 -53 -17 -118 8 -30 11 -65 21 -77 21 -12 0 -28 7 -37
15 -11 11 -40 15 -121 15 l-107 0 7 -29z m274 -77 c10 -9 -6 -12 -31 -7 -16 3
-28 9 -28 14 0 8 48 2 59 -7z m95 -39 c20 -15 20 -15 0 -15 -11 0 -29 7 -40
15 -19 14 -19 14 1 14 11 0 29 -6 39 -14z m131 -45 c10 -16 -36 -17 -56 -1
-21 17 -21 17 15 13 20 -2 38 -8 41 -12z m90 -20 c4 -6 -6 -10 -24 -10 -16 0
-33 5 -36 10 -4 6 6 10 24 10 16 0 33 -4 36 -10z m102 -6 c-3 -3 -12 -4 -19
-1 -8 3 -5 6 6 6 11 1 17 -2 13 -5z m682 -150 c27 -3 60 -39 61 -65 0 -18 -39
-32 -63 -23 -8 3 -18 16 -21 30 -4 13 -11 24 -18 24 -12 0 -37 29 -38 44 0 4
12 5 28 1 15 -4 38 -9 51 -11z m-599 -14 c0 -22 -19 -34 -45 -28 -14 3 -14 5
0 26 20 28 45 29 45 2z m-75 -30 c-3 -5 -12 -10 -20 -10 -8 0 -17 5 -20 10 -4
6 5 10 20 10 15 0 24 -4 20 -10z m-156 -19 c11 -7 21 -20 21 -31 0 -30 -41
-35 -88 -11 -45 23 -56 36 -47 51 8 13 84 6 114 -9z m-779 -10 c0 -11 -59 -26
-67 -18 -3 3 10 10 28 16 19 5 35 10 37 10 1 1 2 -3 2 -8z m2619 -32 c-19 -12
-24 -2 -8 17 9 11 14 13 17 4 3 -7 -2 -16 -9 -21z m-1174 -79 c3 -5 13 -10 21
-10 31 0 61 -51 48 -84 -9 -23 -51 -20 -64 4 -6 12 -22 25 -36 30 -13 5 -24
18 -24 28 0 33 40 56 55 32z m-175 -71 c0 -8 4 -9 13 0 8 6 17 8 20 4 16 -15
4 -23 -33 -23 -29 0 -40 4 -40 15 0 8 9 15 20 15 11 0 20 -5 20 -11z m380 -60
c0 -11 -4 -17 -10 -14 -5 3 -10 15 -10 26 0 11 5 17 10 14 6 -3 10 -15 10 -26z
m-455 -239 c3 -5 2 -10 -4 -10 -5 0 -13 5 -16 10 -3 6 -2 10 4 10 5 0 13 -4
16 -10z m-2085 -109 c0 -14 -73 -22 -85 -9 -7 8 -6 9 2 4 7 -4 21 -2 30 3 22
13 53 14 53 2z m1120 -37 c0 -8 -5 -12 -10 -9 -6 4 -8 11 -5 16 9 14 15 11 15
-7z m1878 -400 c20 -14 31 -54 15 -54 -12 0 -53 43 -53 57 0 17 11 16 38 -3z
m79 -206 c-3 -8 -6 -5 -6 6 -1 11 2 17 5 13 3 -3 4 -12 1 -19z m32 -69 c10
-29 6 -34 -23 -23 -10 4 -16 18 -16 41 0 30 2 33 14 24 8 -7 19 -25 25 -42z
m-2551 -176 c-10 -2 -26 -2 -35 0 -10 3 -2 5 17 5 19 0 27 -2 18 -5z m2719
-675 c-3 -7 -5 -2 -5 12 0 14 2 19 5 13 2 -7 2 -19 0 -25z m-3867 -64 c11 -27
3 -77 -10 -69 -11 7 -22 73 -15 85 10 15 15 12 25 -16z m30 -210 c0 -8 5 -14
10 -14 6 0 10 -22 10 -50 0 -27 -4 -50 -10 -50 -5 0 -10 5 -10 10 0 6 -10 10
-23 10 -12 0 -28 10 -36 22 -12 19 -11 23 3 33 8 7 13 15 9 18 -3 4 -1 7 6 7
7 0 9 5 6 10 -3 6 -4 14 0 20 8 13 35 1 35 -16z m-690 -939 c10 -12 10 -15 -1
-16 -8 0 -5 -4 6 -9 18 -8 17 -9 -7 -9 -23 -1 -28 3 -28 24 0 28 12 32 30 10z
m3236 -132 c7 -10 14 -28 14 -40 0 -13 4 -23 8 -23 5 0 14 -17 20 -37 10 -31
9 -38 -6 -49 -28 -22 -109 -18 -129 6 -10 11 -25 20 -34 20 -22 0 -43 26 -35
45 3 10 19 15 46 15 39 0 43 2 57 40 17 43 38 51 59 23z m554 -379 c0 -8 -5
-12 -10 -9 -6 4 -8 11 -5 16 9 14 15 11 15 -7z m-1002 -240 c15 -10 22 -25 22
-49 0 -29 -5 -37 -32 -51 l-33 -17 27 -8 c15 -4 69 -1 120 7 51 8 106 11 122
8 l29 -6 -28 -24 c-16 -13 -41 -24 -56 -24 -15 0 -29 -5 -31 -11 -5 -16 -85
-32 -153 -30 -53 1 -120 -10 -165 -27 -8 -3 -70 -6 -138 -7 -77 -1 -127 -6
-134 -13 -15 -15 -48 -16 -48 -2 0 26 -20 6 -26 -27 -10 -53 -37 -78 -79 -74
-32 2 -35 0 -35 -23 0 -14 4 -26 8 -26 5 0 15 -18 22 -40 7 -22 17 -40 21 -40
5 0 13 -18 19 -40 6 -22 16 -40 22 -40 18 0 87 -82 110 -131 l21 -45 44 6 c43
7 43 7 43 -24 0 -22 -3 -27 -9 -17 -10 15 -81 7 -81 -9 0 -10 -52 -40 -70 -40
-5 0 -11 8 -11 18 -1 16 -2 16 -6 0 -2 -10 -13 -18 -24 -18 -11 0 -28 -4 -38
-10 -22 -11 -63 14 -55 35 7 18 -26 74 -40 69 -7 -3 -25 9 -41 26 -25 26 -28
37 -27 85 l1 55 -30 -15 c-44 -23 -60 -8 -79 71 -13 61 -18 68 -44 75 -35 10
-46 24 -46 62 0 23 -6 31 -30 40 -34 13 -37 29 -14 87 12 28 21 39 31 36 8 -3
21 -6 28 -6 7 0 26 -11 42 -24 36 -30 138 -50 154 -29 7 7 9 16 6 20 -10 9 12
43 27 43 8 0 26 -7 42 -15 36 -18 57 -4 44 30 -8 21 -6 24 18 29 15 3 80 4
145 2 84 -1 121 1 128 10 7 8 6 14 -1 19 -24 15 -30 54 -13 90 21 43 43 51 88
29 43 -20 59 -65 38 -107 -13 -25 -12 -28 11 -38 14 -7 33 -8 43 -4 10 5 29
10 42 11 38 5 53 13 45 25 -3 6 -19 9 -35 5 -24 -5 -30 -2 -35 18 -11 45 0 79
31 97 38 22 65 23 93 3z m128 -10 c-9 -8 -16 -20 -16 -25 0 -5 -4 -9 -10 -9
-11 0 -14 33 -3 43 3 4 15 7 25 7 18 0 18 -1 4 -16z m304 -130 c0 -10 -55 -58
-83 -73 -14 -7 -33 -11 -41 -8 -19 7 -10 37 11 37 7 0 26 11 41 25 24 22 72
35 72 19z m195 -56 c12 -46 7 -77 -16 -109 -11 -15 -18 -34 -17 -41 2 -8 -8
-14 -24 -16 -19 -2 -28 2 -32 16 -4 11 -16 22 -26 25 -11 3 -20 12 -20 21 0
36 80 132 111 135 11 1 19 -10 24 -31z m-225 -218 c0 -5 -4 -10 -10 -10 -5 0
-10 5 -10 10 0 6 5 10 10 10 6 0 10 -4 10 -10z m141 -139 c8 11 12 11 16 2 2
-7 13 -13 24 -13 16 0 18 -5 13 -27 -4 -16 -17 -38 -30 -51 -13 -13 -24 -27
-24 -32 0 -6 -18 -10 -40 -10 -22 0 -40 -4 -40 -10 0 -5 -9 -10 -20 -10 -11 0
-37 -18 -57 -40 -37 -39 -75 -52 -89 -29 -4 8 -31 10 -76 7 -75 -6 -73 -7 -82
55 -4 34 -2 39 22 48 15 6 45 19 67 29 22 10 51 22 65 28 36 14 71 31 100 47
14 8 36 15 50 15 14 0 32 5 40 10 11 7 20 4 33 -12 16 -18 20 -20 28 -7z
m-623 -128 c-21 -5 -25 -49 -5 -56 23 -8 2 -14 -71 -21 -72 -7 -73 -7 -70 15
2 12 12 27 23 33 10 6 25 17 33 24 7 6 34 11 60 11 26 -1 39 -3 30 -6z m1367
-33 c-3 -5 -12 -10 -18 -10 -7 0 -6 4 3 10 19 12 23 12 15 0z m-1305 -25 c0
-8 -9 -15 -20 -15 -11 0 -20 7 -20 15 0 8 9 15 20 15 11 0 20 -7 20 -15z m65
5 c-3 -5 -10 -10 -16 -10 -5 0 -9 5 -9 10 0 6 7 10 16 10 8 0 12 -4 9 -10z
m-1425 -60 c0 -5 10 -10 23 -10 12 0 33 -7 47 -15 14 -8 40 -22 57 -31 73 -39
41 -89 -58 -92 -38 -1 -59 2 -59 9 0 8 -21 9 -71 5 -74 -8 -162 7 -187 31 -7
7 -17 13 -22 13 -5 0 -16 7 -24 16 -13 12 -13 18 -3 29 6 7 15 11 18 9 4 -2 9
3 13 11 4 11 21 15 63 15 32 0 63 4 70 8 19 12 133 14 133 2z m1035 -13 c-30
-20 -55 -28 -55 -16 0 10 35 27 60 28 10 1 8 -3 -5 -12z m-1355 -53 c0 -8 -4
-12 -10 -9 -5 3 -10 10 -10 16 0 5 5 9 10 9 6 0 10 -7 10 -16z m2940 -226 c0
-16 -3 -19 -11 -11 -6 6 -8 16 -5 22 11 17 16 13 16 -11z"/>
<path d="M2698 2503 c7 -3 16 -2 19 1 4 3 -2 6 -13 5 -11 0 -14 -3 -6 -6z"/>
<path d="M2735 2500 c4 -6 11 -8 16 -5 14 9 11 15 -7 15 -8 0 -12 -5 -9 -10z"/>
<path d="M2380 2390 c0 -5 5 -10 10 -10 6 0 10 5 10 10 0 6 -4 10 -10 10 -5 0
-10 -4 -10 -10z"/>
<path d="M3120 7185 c7 -8 23 -15 36 -15 15 0 24 6 24 15 0 11 -11 15 -36 15
-31 0 -35 -2 -24 -15z"/>
<path d="M3300 7185 c7 -8 27 -15 46 -15 18 0 45 -5 59 -12 30 -13 39 -7 30
21 -6 19 -14 21 -77 21 -61 0 -69 -2 -58 -15z"/>
<path d="M3385 7100 c-3 -5 1 -10 10 -10 9 0 13 5 10 10 -3 6 -8 10 -10 10 -2
0 -7 -4 -10 -10z"/>
<path d="M3426 7082 c-2 -4 -1 -14 5 -22 7 -12 9 -10 9 8 0 23 -5 28 -14 14z"/>
<path d="M989 6932 c-31 -34 -41 -59 -28 -67 15 -10 79 -114 79 -130 0 -24 17
-17 24 10 4 16 16 27 34 31 26 7 61 30 108 73 31 28 21 70 -17 78 -16 3 -29
12 -29 19 0 18 -62 19 -91 2 -17 -10 -23 -10 -26 0 -7 20 -28 14 -54 -16z"/>
<path d="M484 6721 c4 -6 12 -9 17 -6 5 4 9 -12 9 -34 0 -29 -5 -41 -17 -44
-10 -3 -3 -5 15 -6 21 -1 32 -6 32 -16 0 -22 38 -18 52 5 7 11 21 20 30 20 14
0 18 8 18 40 0 32 -4 40 -19 40 -10 0 -46 3 -81 7 -47 5 -61 3 -56 -6z"/>
<path d="M1417 6494 c-3 -3 -1 -12 6 -18 8 -9 15 -10 23 -2 7 6 10 14 7 19 -5
9 -27 9 -36 1z"/>
<path d="M1004 6412 c-51 -21 -149 -127 -159 -172 -8 -36 -35 -50 -100 -50
-35 0 -43 -3 -39 -15 4 -9 0 -15 -10 -15 -9 0 -16 -4 -16 -9 0 -5 -20 -31 -45
-57 -25 -25 -45 -54 -45 -63 0 -30 24 -52 60 -56 19 -2 53 -7 76 -11 37 -6 42
-4 59 22 10 16 19 45 20 64 0 20 4 41 9 48 4 6 5 16 2 21 -14 21 6 40 35 34
26 -5 36 2 94 63 35 38 65 72 65 76 0 4 13 22 29 40 35 40 41 58 29 81 -10 20
-12 20 -64 -1z"/>
<path d="M5137 6382 c-27 -30 -21 -70 16 -105 17 -17 43 -33 57 -35 14 -2 29
-7 35 -13 5 -5 33 -9 62 -9 50 0 53 1 53 25 0 18 5 25 20 25 11 0 20 5 20 10
0 6 -9 10 -20 10 -11 0 -20 7 -20 15 0 8 9 15 20 15 11 0 20 5 20 10 0 6 -9
10 -20 10 -11 0 -20 7 -20 15 0 11 -13 15 -53 15 -31 0 -61 6 -73 15 -27 20
-78 19 -97 -3z"/>
<path d="M250 6353 c-35 -24 -50 -40 -50 -52 0 -6 -9 -11 -20 -11 -11 0 -20 7
-20 15 0 11 -11 15 -40 15 -29 0 -40 4 -40 15 0 11 -11 15 -40 15 l-40 0 0
-100 c0 -73 3 -100 13 -100 9 0 9 -2 -1 -8 -9 -6 0 -13 28 -22 22 -7 45 -19
51 -27 14 -16 41 -17 57 -1 9 9 12 9 12 0 0 -7 6 -12 14 -12 14 0 28 35 34 87
1 6 12 13 25 15 16 2 23 11 25 31 2 15 8 27 13 27 5 0 9 18 9 40 0 33 3 40 20
40 26 0 26 26 1 40 -25 13 -22 13 -51 -7z m-10 -48 c0 -8 -4 -15 -10 -15 -5 0
-10 7 -10 15 0 8 5 15 10 15 6 0 10 -7 10 -15z"/>
<path d="M4593 6147 c-33 -11 -39 -23 -34 -77 3 -29 40 -68 68 -73 24 -3 93
-73 93 -94 0 -9 6 -12 18 -9 20 7 62 -23 62 -43 0 -6 12 -11 26 -11 26 0 26
-1 22 -50 -5 -53 7 -75 34 -65 8 3 21 -1 28 -10 9 -11 9 -15 1 -15 -7 0 -9 -4
-6 -10 3 -5 17 -10 31 -10 18 0 24 -5 24 -21 0 -18 2 -19 15 -9 18 15 30 7 49
-31 6 -13 23 -29 36 -36 36 -18 134 -17 150 2 7 8 17 15 22 15 13 0 62 37 95
73 15 15 37 27 50 27 22 0 23 3 23 70 0 63 -2 70 -20 70 -11 0 -20 -4 -20 -10
0 -6 -33 -10 -80 -10 -47 0 -80 4 -80 10 0 6 -33 10 -80 10 -69 0 -80 2 -80
18 -1 17 -81 62 -112 62 -9 0 -19 11 -22 25 -4 14 -11 25 -16 25 -6 0 -10 7
-10 15 0 10 -10 15 -30 15 -24 0 -31 5 -36 26 -5 18 -9 22 -15 13 -10 -17 -45
12 -53 46 -5 18 -19 29 -56 42 -28 10 -50 21 -50 25 0 9 -4 9 -47 -5z"/>
<path d="M4865 5690 c3 -5 8 -10 11 -10 2 0 4 5 4 10 0 6 -5 10 -11 10 -5 0
-7 -4 -4 -10z"/>
<path d="M480 5654 c0 -15 -10 -35 -22 -46 l-23 -20 23 -18 c17 -14 22 -29 22
-64 0 -39 3 -46 20 -46 11 0 20 7 20 15 0 9 9 15 24 15 13 0 29 7 36 15 7 8
23 15 36 15 18 0 24 5 24 23 0 16 9 27 33 37 l32 13 -32 4 c-25 3 -33 9 -33
24 0 16 -7 19 -40 19 -33 0 -40 3 -40 20 0 17 -7 20 -40 20 -37 0 -40 -2 -40
-26z"/>
<path d="M205 5444 c-11 -8 -29 -13 -39 -10 -11 3 -30 -4 -44 -15 -14 -11 -33
-17 -43 -14 -10 4 -27 1 -38 -4 -18 -10 -19 -13 -4 -42 8 -17 21 -33 29 -36 8
-3 14 -14 14 -24 0 -10 3 -19 8 -19 4 0 6 -18 4 -40 -2 -22 0 -40 5 -40 6 0
16 -18 23 -40 l13 -40 54 0 c29 0 53 -4 53 -10 0 -5 18 -10 40 -10 22 0 40 5
40 10 0 6 5 10 11 10 14 0 69 55 69 69 0 6 5 11 11 11 6 0 9 16 7 38 -3 34 -6
37 -35 40 -31 3 -33 6 -33 43 0 36 -2 39 -27 39 -21 0 -24 3 -15 12 19 19 15
25 -28 49 -22 13 -40 26 -40 31 0 12 -13 9 -35 -8z"/>
<path d="M5304 5263 c-42 -8 -54 -60 -54 -228 l0 -155 -25 0 c-23 0 -25 -3
-25 -49 l0 -49 -47 -17 c-110 -39 -108 -38 -87 -46 19 -7 19 -7 0 -15 -13 -5
-21 -3 -24 4 -5 17 -49 15 -55 -2 -3 -8 -18 -20 -34 -28 -15 -7 -28 -19 -27
-26 1 -6 2 -30 3 -52 1 -31 5 -40 19 -40 10 0 34 -17 54 -37 33 -35 37 -44 43
-119 8 -89 3 -100 -55 -126 -16 -7 -30 -19 -30 -25 0 -8 -12 -13 -28 -13 -15
0 -33 -5 -40 -12 -9 -9 -12 -9 -12 3 0 11 -10 14 -40 11 -31 -3 -40 -1 -40 11
0 10 -7 13 -18 10 -25 -6 -44 -76 -43 -159 1 -38 1 -85 0 -104 0 -19 2 -44 6
-57 4 -16 1 -23 -9 -23 -8 0 -16 -14 -19 -32 -3 -18 -12 -62 -20 -98 -22 -94
-32 -252 -18 -278 15 -27 16 -159 2 -195 -13 -33 -6 -43 54 -71 22 -10 52 -25
67 -32 14 -8 33 -14 42 -14 9 0 16 -4 16 -9 0 -5 23 -18 50 -30 28 -12 50 -26
50 -31 0 -6 7 -10 16 -10 8 0 30 -11 48 -25 18 -14 38 -25 43 -25 6 0 16 -7
23 -15 7 -8 20 -15 29 -15 9 0 27 -17 41 -37 35 -53 53 -73 64 -73 5 0 24 -11
42 -25 25 -19 45 -25 83 -25 l51 0 0 545 c0 538 0 545 -20 545 -11 0 -20 5
-20 10 0 6 -19 10 -42 11 -35 1 -38 2 -18 8 l25 7 -22 8 c-28 9 -30 42 -5 50
10 4 28 20 40 36 13 17 31 30 42 30 19 0 20 7 20 135 l0 135 -34 0 c-30 0 -36
4 -49 38 -8 20 -11 39 -6 40 17 7 9 44 -11 49 -28 8 -25 33 4 33 13 0 26 -4
28 -10 2 -5 18 -12 36 -16 l32 -6 0 176 c0 169 -1 176 -20 176 -11 0 -20 5
-20 10 0 6 9 10 20 10 13 0 20 7 20 20 0 13 -7 20 -20 20 -11 0 -20 5 -20 10
0 6 9 10 20 10 19 0 20 7 20 149 l0 149 -31 6 c-17 3 -34 5 -38 5 -3 -1 -15
-4 -27 -6z"/>
<path d="M4873 5080 c0 -25 2 -35 4 -22 2 12 2 32 0 45 -2 12 -4 2 -4 -23z"/>
<path d="M3460 4901 c-14 -5 -36 -6 -50 -4 -14 3 -50 -5 -80 -16 -30 -12 -71
-21 -90 -21 -19 0 -44 -7 -54 -15 -11 -8 -34 -15 -52 -15 -18 0 -45 -5 -61
-11 -58 -23 -140 -40 -193 -42 -59 -1 -65 -6 -132 -98 -20 -28 -36 -39 -67
-44 -21 -3 -42 -13 -45 -21 -7 -19 -35 -18 -58 3 -17 15 -18 15 -18 0 0 -13
-9 -17 -39 -17 -22 0 -41 -5 -44 -12 -3 -9 -14 -3 -31 16 -24 25 -32 28 -73
23 -26 -3 -54 0 -64 6 -13 8 -28 7 -56 -2 -21 -7 -76 -14 -123 -17 -156 -7
-314 -22 -425 -39 -119 -18 -113 -14 -222 -122 -24 -24 -48 -43 -53 -43 -5 0
-17 -17 -26 -37 -10 -21 -19 -41 -21 -44 -1 -4 7 -18 18 -33 11 -14 17 -31 14
-37 -4 -6 7 -23 24 -38 35 -31 39 -60 16 -105 -8 -15 -15 -38 -15 -49 0 -11
-10 -31 -21 -43 l-22 -23 24 -6 c13 -3 49 0 79 6 101 19 125 20 165 7 29 -9
40 -19 40 -33 0 -13 -6 -19 -18 -19 -13 1 -16 -3 -12 -16 3 -11 0 -28 -7 -40
-11 -18 -10 -23 6 -35 10 -8 43 -17 74 -21 63 -8 118 -28 124 -45 2 -6 15 -11
28 -11 40 -1 152 32 190 56 43 26 76 45 115 65 17 8 35 20 40 27 6 7 34 25 64
41 49 25 57 35 88 100 19 40 45 83 58 97 13 15 31 55 41 98 23 92 46 122 98
126 66 6 135 -50 136 -110 1 -16 40 -62 67 -76 11 -6 35 -41 53 -79 22 -44 58
-92 102 -136 63 -64 88 -76 88 -41 0 8 4 14 9 14 5 0 12 9 16 19 3 11 13 22
21 25 17 7 106 -13 114 -25 3 -4 59 -9 125 -10 l120 -3 76 37 c42 20 81 37 87
37 6 0 18 14 27 30 9 17 21 30 28 30 7 0 28 13 48 29 20 17 48 33 62 37 38 9
40 17 16 58 -16 28 -27 36 -50 36 -32 0 -35 7 -15 35 10 14 28 19 85 20 63 2
75 5 99 28 16 15 33 27 38 27 16 0 64 24 64 32 0 4 -9 13 -20 20 -16 10 -20
24 -20 70 0 36 -4 58 -11 58 -7 0 -9 12 -5 35 6 30 2 40 -26 71 -19 21 -33 47
-34 64 -1 18 -13 38 -30 54 -31 27 -88 51 -102 42 -11 -6 -138 33 -179 55 -39
22 -90 30 -123 20z"/>
<path d="M4606 4511 c-4 -7 -5 -15 -2 -18 9 -9 19 4 14 18 -4 11 -6 11 -12 0z"/>
<path d="M4573 4469 c-6 -6 -26 -14 -45 -18 -28 -6 -33 -11 -33 -37 -1 -16 -4
-40 -9 -54 -17 -54 -17 -60 -3 -60 7 0 20 11 27 25 32 60 84 8 106 -105 3 -19
13 -46 21 -60 8 -14 12 -18 10 -10 -2 8 0 23 5 34 7 13 6 21 -2 26 -6 4 -10
20 -8 36 l3 29 17 -30 17 -30 1 33 c0 32 -7 50 -54 132 -12 20 -19 48 -17 67
3 34 -14 44 -36 22z m67 -165 c0 -8 -4 -12 -10 -9 -5 3 -10 10 -10 16 0 5 5 9
10 9 6 0 10 -7 10 -16z"/>
<path d="M3020 3911 c0 -6 5 -13 10 -16 6 -3 10 1 10 9 0 9 -4 16 -10 16 -5 0
-10 -4 -10 -9z"/>
<path d="M940 3776 c0 -22 9 -76 20 -120 11 -43 20 -89 20 -103 0 -13 7 -26
15 -29 8 -4 15 -16 15 -28 0 -12 6 -31 14 -41 13 -18 15 -16 20 25 3 25 7 98
10 162 5 136 -1 151 -71 167 l-43 9 0 -42z"/>
<path d="M3200 3615 c0 -8 5 -15 10 -15 6 0 10 7 10 15 0 8 -4 15 -10 15 -5 0
-10 -7 -10 -15z"/>
<path d="M1158 3553 c-10 -11 -18 -32 -18 -46 0 -15 -5 -36 -12 -46 -9 -16 -8
-27 7 -60 10 -23 22 -41 26 -41 12 0 39 -60 39 -86 0 -21 16 -41 25 -32 2 2
-5 53 -16 113 -12 61 -24 134 -27 164 -7 52 -8 53 -24 34z"/>
<path d="M3780 3471 c0 -13 27 -21 45 -15 25 10 17 24 -15 24 -16 0 -30 -4
-30 -9z"/>
<path d="M4555 3450 c-3 -5 -1 -10 4 -10 6 0 11 5 11 10 0 6 -2 10 -4 10 -3 0
-8 -4 -11 -10z"/>
<path d="M62 3289 c2 -6 7 -10 11 -10 4 1 25 1 48 1 24 0 38 4 34 10 -9 14
-98 13 -93 -1z"/>
<path d="M0 2203 l0 -238 25 30 c35 43 49 94 30 115 -22 24 -19 50 5 50 23 0
23 3 5 50 -10 27 -14 30 -14 13 -1 -12 -4 -30 -8 -40 -6 -15 -8 -13 -13 12 -7
36 4 95 20 105 12 8 -26 140 -41 140 -5 0 -9 -107 -9 -237z"/>
<path d="M4576 1861 c-4 -7 -5 -15 -2 -18 9 -9 19 4 14 18 -4 11 -6 11 -12 0z"/>
<path d="M2096 1365 c-3 -8 -1 -15 4 -15 6 0 10 7 10 15 0 8 -2 15 -4 15 -2 0
-6 -7 -10 -15z"/>
</g>
</svg>
